<?xml version="1.0" encoding="UTF-8" standalone="no"?>
<svg
   id="Layer_2"
   data-name="Layer 2"
   width="47.38"
   height="47.38"
   viewBox="0 0 47.38 47.38"
   version="1.1"
   sodipodi:docname="b.svg"
   inkscape:version="1.4.2 (f4327f4, 2025-05-13)"
   xmlns:inkscape="http://www.inkscape.org/namespaces/inkscape"
   xmlns:sodipodi="http://sodipodi.sourceforge.net/DTD/sodipodi-0.dtd"
   xmlns="http://www.w3.org/2000/svg"
   xmlns:svg="http://www.w3.org/2000/svg">
  <sodipodi:namedview
     id="namedview2"
     pagecolor="#ffffff"
     bordercolor="#000000"
     borderopacity="0.25"
     inkscape:showpageshadow="2"
     inkscape:pageopacity="0.0"
     inkscape:pagecheckerboard="0"
     inkscape:deskcolor="#d1d1d1"
     inkscape:zoom="17.032503"
     inkscape:cx="23.660645"
     inkscape:cy="23.690001"
     inkscape:window-width="1920"
     inkscape:window-height="1009"
     inkscape:window-x="1912"
     inkscape:window-y="-8"
     inkscape:window-maximized="1"
     inkscape:current-layer="Layer_2" />
  <defs
     id="defs1">
    <style
       id="style1">
      .cls-1 {
        fill: #141414;
      }

      .cls-1, .cls-2 {
        stroke-width: 0px;
      }

      .cls-2 {
        fill: #c1272d;
      }
    </style>
  </defs>
  <g
     id="Layer_1-2"
     data-name="Layer 1">
    <g
       id="g2">
      <g
         id="B">
        <path
           class="cls-1"
           d="m23.69,0c13.08,0,23.69,10.61,23.69,23.69s-10.61,23.69-23.69,23.69S0,36.77,0,23.69C0,10.61,10.61,0,23.69,0Z"
           id="path1" />
      </g>
      <path
         class="cls-2"
         d="m33.9,30c.07,2.47-1.01,4.83-2.93,6.39-2.15,1.69-4.83,2.55-7.56,2.43h-9.91V8.53h9.57c2.43-.12,4.84.54,6.87,1.88,1.63,1.17,2.58,3.08,2.52,5.09.02,1.58-.51,3.12-1.5,4.35-1.02,1.28-2.42,2.22-4,2.67v.09c1.93.16,3.75,1.01,5.11,2.39,1.22,1.37,1.88,3.16,1.83,5Zm-6.77-13.53c.05-1.09-.45-2.14-1.33-2.79-1.2-.74-2.6-1.09-4-1h-3.26v8.39h3.23c1.43.1,2.86-.33,4-1.2.94-.87,1.44-2.12,1.36-3.4Zm1.48,13.4c.06-1.32-.52-2.59-1.55-3.41-1.39-.9-3.03-1.32-4.68-1.2h-3.84v9.41h4.24c1.52.09,3.03-.38,4.24-1.31,1.05-.85,1.64-2.14,1.59-3.49Z"
         id="path2"
         style="fill:#808080;fill-opacity:1" />
    </g>
  </g>
</svg>
