<?xml version="1.0" encoding="UTF-8" standalone="no"?>
<svg
   id="Layer_2"
   data-name="Layer 2"
   width="34.33"
   height="55.29"
   viewBox="0 0 34.33 55.29"
   version="1.1"
   sodipodi:docname="down-pressed.svg"
   inkscape:version="1.4.2 (f4327f4, 2025-05-13)"
   xmlns:inkscape="http://www.inkscape.org/namespaces/inkscape"
   xmlns:sodipodi="http://sodipodi.sourceforge.net/DTD/sodipodi-0.dtd"
   xmlns="http://www.w3.org/2000/svg"
   xmlns:svg="http://www.w3.org/2000/svg">
  <sodipodi:namedview
     id="namedview5"
     pagecolor="#ffffff"
     bordercolor="#000000"
     borderopacity="0.25"
     inkscape:showpageshadow="2"
     inkscape:pageopacity="0.0"
     inkscape:pagecheckerboard="0"
     inkscape:deskcolor="#d1d1d1"
     inkscape:zoom="14.595768"
     inkscape:cx="17.196766"
     inkscape:cy="22.163959"
     inkscape:window-width="1920"
     inkscape:window-height="1009"
     inkscape:window-x="1912"
     inkscape:window-y="-8"
     inkscape:window-maximized="1"
     inkscape:current-layer="Layer_2" />
  <defs
     id="defs1">
    <style
       id="style1">
      .cls-1 {
        fill: #edf4f4;
      }

      .cls-1, .cls-2, .cls-3, .cls-4, .cls-5 {
        stroke-width: 0px;
      }

      .cls-2 {
        fill: #e8e8e8;
      }

      .cls-3 {
        fill: #e3e3e3;
      }

      .cls-4 {
        fill: #ebebeb;
      }

      .cls-5 {
        fill: #f0f0f0;
      }
    </style>
  </defs>
  <g
     id="Layer_1-2"
     data-name="Layer 1">
    <g
       id="Down">
      <g
         id="g2">
        <path
           class="cls-4"
           d="m 17.17,51.21 c -7.14,0 -12.75,-1.32 -13,-3.08 V 47.99 13.77 L 17.375539,13.590446 30.23,13.77 v 34.38 c -0.32,1.74 -5.93,3.06 -13.06,3.06 z"
           id="path1"
           sodipodi:nodetypes="sccccccs" />
        <path
           class="cls-1"
           d="M 16.895948,14.016394 29.73,14 v 34 0.06 c -0.19,1.12 -4.66,2.66 -12.55,2.66 -7.89,0 -12.37,-1.55 -12.57,-2.66 V 47.99 14 l 12.285948,0.01639 m 0,-0.587844 L 3.6,13.56 V 48 v 0 0.23 c 0.41,2.33 7,3.49 13.54,3.49 6.54,0 13.14,-1.16 13.55,-3.49 V 48 13.56 Z"
           id="path2"
           sodipodi:nodetypes="ccccscccccccccscccc" />
      </g>
      <path
         class="cls-5"
         d="m30.73,48l2.75,2.77c.55-.82.85-1.78.85-2.77v-30.82l-3.6-3.62v34.44Z"
         id="path3" />
      <path
         class="cls-2"
         d="m30.71,48.22c-.41,2.33-7,3.49-13.54,3.49s-13.17-1.16-13.55-3.49c0-.08,0-.15,0-.23l-2.8,2.77c.93,1.36,2.74,2.7,6.17,3.52,3.34.72,6.76,1.06,10.18,1,3.42.06,6.83-.28,10.17-1,3.43-.82,5.24-2.16,6.14-3.52l-2.75-2.76c0,.07,0,.15-.02.22Z"
         id="path4" />
      <path
         class="cls-3"
         d="m3.6,48h0V13.56l-3.6,3.62v31.65l.09.24c.14.6.39,1.17.73,1.69l2.78-2.76Z"
         id="path5" />
    </g>
  </g>
</svg>
