<?xml version="1.0" encoding="UTF-8" standalone="no"?>
<svg
   id="Layer_2"
   data-name="Layer 2"
   width="55.32"
   height="34.36"
   viewBox="0 0 55.32 34.36"
   version="1.1"
   sodipodi:docname="left-pressed.svg"
   inkscape:version="1.4.2 (f4327f4, 2025-05-13)"
   xmlns:inkscape="http://www.inkscape.org/namespaces/inkscape"
   xmlns:sodipodi="http://sodipodi.sourceforge.net/DTD/sodipodi-0.dtd"
   xmlns="http://www.w3.org/2000/svg"
   xmlns:svg="http://www.w3.org/2000/svg">
  <sodipodi:namedview
     id="namedview5"
     pagecolor="#ffffff"
     bordercolor="#000000"
     borderopacity="0.25"
     inkscape:showpageshadow="2"
     inkscape:pageopacity="0.0"
     inkscape:pagecheckerboard="0"
     inkscape:deskcolor="#d1d1d1"
     inkscape:zoom="23.486612"
     inkscape:cx="27.675341"
     inkscape:cy="17.18"
     inkscape:window-width="1920"
     inkscape:window-height="1009"
     inkscape:window-x="1912"
     inkscape:window-y="-8"
     inkscape:window-maximized="1"
     inkscape:current-layer="Layer_2" />
  <defs
     id="defs1">
    <style
       id="style1">
      .cls-1 {
        fill: #d6d6d6;
      }

      .cls-1, .cls-2, .cls-3, .cls-4, .cls-5 {
        stroke-width: 0px;
      }

      .cls-2 {
        fill: #dbdbdb;
      }

      .cls-3 {
        fill: #edf4f4;
      }

      .cls-4 {
        fill: #e5e5e5;
      }

      .cls-5 {
        fill: #ebebeb;
      }
    </style>
  </defs>
  <g
     id="Layer_1-2"
     data-name="Layer 1">
    <g
       id="left">
      <g
         id="g2">
        <path
           class="cls-5"
           d="M 7.34,30.24 C 5.52,30.24 4.09,24.5 4.09,17.18 4.09,9.86 5.52,4.12 7.34,4.12 H 41.55 L 41.506146,17.18 41.55,30.24 Z"
           id="path1"
           sodipodi:nodetypes="ssscccs" />
        <path
           class="cls-3"
           d="M 41.35,4.62 41.349653,16.711648 41.35,29.74 h -34 C 6.2,29.74 4.6,24.96 4.6,17.18 4.6,9.4 6.19,4.62 7.34,4.62 h 34 m 0.41,-1 H 7.34 c -5,0 -5,27.12 0,27.12 H 41.76 L 41.737794,16.744226 41.76,3.62 v 0 z"
           id="path2"
           sodipodi:nodetypes="cccsssccssccccc" />
      </g>
      <path
         class="cls-2"
         d="m41.76,3.62l-3.6-3.62H7.34c-.99,0-1.96.29-2.78.84l2.78,2.78h34.42Z"
         id="path3" />
      <path
         class="cls-1"
         d="m7.34,3.62h0L4.56.85c-1.37.93-2.68,2.73-3.53,6.14C-.34,13.71-.34,20.65,1.03,27.37c.85,3.4,2.16,5.21,3.53,6.14l2.78-2.77c-4.99,0-4.99-27.12,0-27.12Z"
         id="path4" />
      <path
         class="cls-4"
         d="m7.34,30.74l-2.78,2.77c.82.55,1.79.84,2.78.85h30.82l3.6-3.62H7.34Z"
         id="path5" />
    </g>
  </g>
</svg>
