<?xml version="1.0" encoding="UTF-8" standalone="no"?>
<svg
   id="Layer_2"
   data-name="Layer 2"
   width="55.32"
   height="34.36"
   viewBox="0 0 55.32 34.36"
   version="1.1"
   sodipodi:docname="right-pressed.svg"
   inkscape:version="1.4.2 (f4327f4, 2025-05-13)"
   xmlns:inkscape="http://www.inkscape.org/namespaces/inkscape"
   xmlns:sodipodi="http://sodipodi.sourceforge.net/DTD/sodipodi-0.dtd"
   xmlns="http://www.w3.org/2000/svg"
   xmlns:svg="http://www.w3.org/2000/svg">
  <sodipodi:namedview
     id="namedview5"
     pagecolor="#ffffff"
     bordercolor="#000000"
     borderopacity="0.25"
     inkscape:showpageshadow="2"
     inkscape:pageopacity="0.0"
     inkscape:pagecheckerboard="0"
     inkscape:deskcolor="#d1d1d1"
     inkscape:zoom="23.486612"
     inkscape:cx="27.675341"
     inkscape:cy="17.18"
     inkscape:window-width="1920"
     inkscape:window-height="1009"
     inkscape:window-x="1912"
     inkscape:window-y="-8"
     inkscape:window-maximized="1"
     inkscape:current-layer="Layer_2" />
  <defs
     id="defs1">
    <style
       id="style1">
      .cls-1 {
        fill: #edf4f4;
      }

      .cls-1, .cls-2, .cls-3, .cls-4, .cls-5 {
        stroke-width: 0px;
      }

      .cls-2 {
        fill: #e8e8e8;
      }

      .cls-3 {
        fill: #ebebeb;
      }

      .cls-4 {
        fill: #f0f0f0;
      }

      .cls-5 {
        fill: #e6e6e6;
      }
    </style>
  </defs>
  <g
     id="Layer_1-2"
     data-name="Layer 1">
    <g
       id="Right">
      <g
         id="g2">
        <path
           class="cls-3"
           d="M 13.77,30.24 13.568389,17.094845 13.77,4.12 H 48 c 1.81,0 3.23,5.74 3.23,13.06 0,7.32 -1.44,13.06 -3.23,13.06 z"
           id="path1"
           sodipodi:nodetypes="cccsssc" />
        <path
           class="cls-1"
           d="m 48,4.62 c 1.14,0 2.73,4.78 2.73,12.56 0,7.78 -1.61,12.56 -2.73,12.56 H 14 L 14.055502,17.18 14,4.62 h 34 m 0,-1 H 13.56 L 13.497051,17.35031 13.56,30.74 H 48 c 5,0 5,-27.12 0,-27.12 z"
           id="path2"
           sodipodi:nodetypes="cssccccscccss" />
      </g>
      <path
         class="cls-5"
         d="m48,3.62l2.76-2.77c-.82-.55-1.78-.84-2.76-.85h-30.83l-3.61,3.68,34.44-.06Z"
         id="path3" />
      <path
         class="cls-2"
         d="m48,30.74H13.56l3.6,3.62h32.32l.34-.35c.32-.13.63-.3.92-.5l-2.74-2.77Z"
         id="path4" />
      <path
         class="cls-4"
         d="m50.74.85l-2.74,2.77c5,0,5,27.12,0,27.12l2.76,2.77c1.37-.93,2.71-2.74,3.55-6.14.71-3.35,1.05-6.77,1-10.19.05-3.42-.28-6.84-1-10.19-.86-3.4-2.2-5.21-3.57-6.14Z"
         id="path5" />
    </g>
  </g>
</svg>
