<?xml version="1.0" encoding="UTF-8" standalone="no"?>
<svg
   id="Layer_2"
   data-name="Layer 2"
   width="34.33"
   height="55.32"
   viewBox="0 0 34.33 55.32"
   version="1.1"
   sodipodi:docname="up-pressed.svg"
   inkscape:version="1.4.2 (f4327f4, 2025-05-13)"
   xmlns:inkscape="http://www.inkscape.org/namespaces/inkscape"
   xmlns:sodipodi="http://sodipodi.sourceforge.net/DTD/sodipodi-0.dtd"
   xmlns="http://www.w3.org/2000/svg"
   xmlns:svg="http://www.w3.org/2000/svg">
  <sodipodi:namedview
     id="namedview5"
     pagecolor="#ffffff"
     bordercolor="#000000"
     borderopacity="0.25"
     inkscape:showpageshadow="2"
     inkscape:pageopacity="0.0"
     inkscape:pagecheckerboard="0"
     inkscape:deskcolor="#d1d1d1"
     inkscape:zoom="11.313709"
     inkscape:cx="-10.518213"
     inkscape:cy="50.160387"
     inkscape:window-width="1920"
     inkscape:window-height="1009"
     inkscape:window-x="1912"
     inkscape:window-y="-8"
     inkscape:window-maximized="1"
     inkscape:current-layer="Up" />
  <defs
     id="defs1">
    <style
       id="style1">
      .cls-1 {
        fill: #d6d6d6;
      }

      .cls-1, .cls-2, .cls-3, .cls-4, .cls-5 {
        stroke-width: 0px;
      }

      .cls-2 {
        fill: #dbdbdb;
      }

      .cls-3 {
        fill: #edf4f4;
      }

      .cls-4 {
        fill: #e3e3e3;
      }

      .cls-5 {
        fill: #ebebeb;
      }
    </style>
  </defs>
  <g
     id="Layer_1-2"
     data-name="Layer 1">
    <g
       id="Up">
      <g
         id="g2">
        <path
           class="cls-5"
           d="M 4.1,41.56 V 7.34 7.2 L 4.18,7.01 4.26,6.88 c 0.49,-0.81 2.1,-1.52 4.53,-2 L 9.67,4.67 C 10,4.6 10.33,4.55 10.67,4.53 h 0.16 l 0.84,-0.14 1,-0.1 1,-0.09 2.37,-0.07 h 1 c 7.32,0 13.06,1.42 13.06,3.23 v 34.2 l -13.735495,0.189495 z"
           id="path1"
           sodipodi:nodetypes="cccccccccccccssccc" />
        <path
           class="cls-3"
           d="m 17.16,4.61 c 8.09,0 12.57,1.62 12.57,2.73 v 34 L 16.939029,41.358855 4.6,41.35 v -34 0 -0.14 0 C 4.76,6.96 5.51,6.1 8.79,5.45 H 8.85 L 9.68,5.28 H 9.77 C 10.1,5.22 10.36,5.19 10.56,5.17 h 0.19 l 0.92,-0.12 v 0 l 1,-0.11 v 0 l 1,-0.08 h 3.38 m 0,-1 h -3.38 l -1,0.09 v 0 l -1,0.11 v 0 l -1,-0.05 h -0.06 c -0.32,0 -0.64,0.08 -0.94,0.13 H 9.6 C 9.3,4.14 9,4.25 8.72,4.32 v 0 C 6.3,4.79 4.47,5.53 3.86,6.54 3.81,6.59 3.78,6.65 3.75,6.71 v 0 0.18 c 0,0.06 0,0 0,0 V 7.04 7.25 41.77 L 16.983223,41.752389 30.73,41.77 v -34.43 0 c 0,-2.5 -6.8,-3.73 -13.57,-3.73 z"
           id="path2"
           sodipodi:nodetypes="csccccccscccccccccccccccccccscssscscscccccccscc" />
      </g>
      <path
         class="cls-2"
         d="m8.67,4.36h0l.88-.19h.12c.3-.05.62-.1.94-.13h.06l1-.13h0l1-.11h0l1-.08h3.49c6.77,0,13.56,1.23,13.56,3.73l2.75-2.77c-.89-1.48-2.7-2.82-6.13-3.67C24,.28,20.58-.05,17.16,0c-3.42-.06-6.84.27-10.18,1-2.93.71-4.71,1.79-5.72,3l2.57,2.57c.62-1.01,2.44-1.75,4.84-2.22Z"
         id="path3" />
      <path
         class="cls-4"
         d="m30.73,7.34h0v34.43l3.6-3.63V7.34c0-.99-.3-1.95-.85-2.77l-2.75,2.77Z"
         id="path4" />
      <path
         class="cls-1"
         d="m3.6,7.34c0-.07,0-.14,0-.21.02-.04.04-.08.07-.12h0v-.18h0c.02-.06.06-.11.1-.16l-2.51-2.66C.44,4.92,0,6.11,0,7.34v30.81l3.6,3.62V7.34Z"
         id="path5" />
    </g>
  </g>
</svg>
